<mxfile host="drawio-plugin" modified="2022-09-11T08:16:39.130Z" agent="5.0 (Macintosh; Intel Mac OS X 12_5_1) AppleWebKit/537.36 (KHTML, like Gecko) Chrome/89.0.4389.114 Safari/537.36" etag="E-lxiq7nIKl2A75eEVXK" version="15.5.4" type="embed" pages="2"><diagram id="6sMQ5dmcHRpXuZBFNezs" name="Page-1"><mxGraphModel dx="1887" dy="692" grid="1" gridSize="10" guides="1" tooltips="1" connect="1" arrows="1" fold="1" page="1" pageScale="1" pageWidth="1169" pageHeight="827" background="#F1FAEE" math="0" shadow="0"><root><mxCell id="0"/><mxCell id="1" parent="0"/><mxCell id="Nk5pLMNR2XuMKu6LX4S3-46" value="Backplane group" style="swimlane;childLayout=stackLayout;horizontal=1;startSize=30;horizontalStack=0;rounded=1;fontSize=14;fontStyle=0;strokeWidth=2;resizeParent=0;resizeLast=1;shadow=0;dashed=0;align=center;fillColor=#A8DADC;strokeColor=#457B9D;fontColor=#1D3557;" parent="1" vertex="1"><mxGeometry x="80" y="1010" width="160" height="120" as="geometry"/></mxCell><mxCell id="Nk5pLMNR2XuMKu6LX4S3-47" value="+Attribute1&#10;+Attribute2&#10;+Attribute3" style="align=left;strokeColor=none;fillColor=none;spacingLeft=4;fontSize=12;verticalAlign=top;resizable=0;rotatable=0;part=1;fontColor=#1D3557;" parent="Nk5pLMNR2XuMKu6LX4S3-46" vertex="1"><mxGeometry y="30" width="160" height="90" as="geometry"/></mxCell><mxCell id="Nk5pLMNR2XuMKu6LX4S3-44" value="Backplane Slot" style="swimlane;childLayout=stackLayout;horizontal=1;startSize=30;horizontalStack=0;rounded=1;fontSize=14;fontStyle=0;strokeWidth=2;resizeParent=0;resizeLast=1;shadow=0;dashed=0;align=center;fillColor=#A8DADC;strokeColor=#457B9D;fontColor=#1D3557;" parent="1" vertex="1"><mxGeometry x="340" y="1090" width="160" height="120" as="geometry"/></mxCell><mxCell id="Nk5pLMNR2XuMKu6LX4S3-45" value="+Attribute1&#10;+Attribute2&#10;+Attribute3" style="align=left;strokeColor=none;fillColor=none;spacingLeft=4;fontSize=12;verticalAlign=top;resizable=0;rotatable=0;part=1;fontColor=#1D3557;" parent="Nk5pLMNR2XuMKu6LX4S3-44" vertex="1"><mxGeometry y="30" width="160" height="90" as="geometry"/></mxCell><mxCell id="Nk5pLMNR2XuMKu6LX4S3-62" value="" style="edgeStyle=entityRelationEdgeStyle;fontSize=12;html=1;endArrow=ERzeroToMany;endFill=0;entryX=0;entryY=0.25;entryDx=0;entryDy=0;startArrow=ERzeroToOne;startFill=1;strokeColor=#457B9D;fontColor=#1D3557;labelBackgroundColor=#F1FAEE;" parent="1" source="Nk5pLMNR2XuMKu6LX4S3-47" target="Nk5pLMNR2XuMKu6LX4S3-45" edge="1"><mxGeometry width="100" height="100" relative="1" as="geometry"><mxPoint x="340" y="272.5" as="sourcePoint"/><mxPoint x="480" y="282.5" as="targetPoint"/></mxGeometry></mxCell><mxCell id="Nk5pLMNR2XuMKu6LX4S3-68" value="" style="edgeStyle=entityRelationEdgeStyle;fontSize=12;html=1;endArrow=ERzeroToOne;endFill=1;entryX=0;entryY=0.5;entryDx=0;entryDy=0;exitX=1;exitY=0.556;exitDx=0;exitDy=0;exitPerimeter=0;strokeColor=#457B9D;fontColor=#1D3557;startArrow=ERzeroToOne;startFill=1;labelBackgroundColor=#F1FAEE;" parent="1" source="Nk5pLMNR2XuMKu6LX4S3-45" target="PZfQZWNenDgc0RnsTdh2-2" edge="1"><mxGeometry width="100" height="100" relative="1" as="geometry"><mxPoint x="640" y="390" as="sourcePoint"/><mxPoint x="670" y="325" as="targetPoint"/></mxGeometry></mxCell><mxCell id="Nk5pLMNR2XuMKu6LX4S3-69" value="Unit" style="swimlane;childLayout=stackLayout;horizontal=1;startSize=30;horizontalStack=0;rounded=1;fontSize=14;fontStyle=0;strokeWidth=2;resizeParent=0;resizeLast=1;shadow=0;dashed=0;align=center;fillColor=#A8DADC;strokeColor=#457B9D;fontColor=#1D3557;" parent="1" vertex="1"><mxGeometry x="860" y="1101" width="160" height="110" as="geometry"/></mxCell><mxCell id="Nk5pLMNR2XuMKu6LX4S3-70" value="+Attribute1&#10;+Attribute2&#10;+Attribute3" style="align=left;strokeColor=none;fillColor=none;spacingLeft=4;fontSize=12;verticalAlign=top;resizable=0;rotatable=0;part=1;fontColor=#1D3557;" parent="Nk5pLMNR2XuMKu6LX4S3-69" vertex="1"><mxGeometry y="30" width="160" height="80" as="geometry"/></mxCell><mxCell id="Nk5pLMNR2XuMKu6LX4S3-75" value="" style="edgeStyle=entityRelationEdgeStyle;orthogonalLoop=1;jettySize=auto;html=1;fontSize=12;startArrow=ERmandOne;endArrow=ERzeroToOne;endFill=0;strokeColor=#457B9D;fontColor=#1D3557;exitX=1;exitY=0.5;exitDx=0;exitDy=0;labelBackgroundColor=#F1FAEE;" parent="1" source="Nk5pLMNR2XuMKu6LX4S3-70" target="Nk5pLMNR2XuMKu6LX4S3-72" edge="1"><mxGeometry relative="1" as="geometry"><mxPoint x="1110" y="377.5" as="sourcePoint"/></mxGeometry></mxCell><mxCell id="Nk5pLMNR2XuMKu6LX4S3-71" value="Module" style="swimlane;childLayout=stackLayout;horizontal=1;startSize=30;horizontalStack=0;rounded=1;fontSize=14;fontStyle=0;strokeWidth=2;resizeParent=0;resizeLast=1;shadow=0;dashed=0;align=center;fillColor=#A8DADC;strokeColor=#457B9D;fontColor=#1D3557;" parent="1" vertex="1"><mxGeometry x="1090" y="1101" width="160" height="110" as="geometry"/></mxCell><mxCell id="Nk5pLMNR2XuMKu6LX4S3-72" value="+Attribute1&#10;+Attribute2&#10;+Attribute3" style="align=left;strokeColor=none;fillColor=none;spacingLeft=4;fontSize=12;verticalAlign=top;resizable=0;rotatable=0;part=1;fontColor=#1D3557;" parent="Nk5pLMNR2XuMKu6LX4S3-71" vertex="1"><mxGeometry y="30" width="160" height="80" as="geometry"/></mxCell><mxCell id="Nk5pLMNR2XuMKu6LX4S3-76" value="PowerSupply" style="swimlane;childLayout=stackLayout;horizontal=1;startSize=30;horizontalStack=0;rounded=1;fontSize=14;fontStyle=0;strokeWidth=2;resizeParent=0;resizeLast=1;shadow=0;dashed=0;align=center;fillColor=#A8DADC;strokeColor=#457B9D;fontColor=#1D3557;" parent="1" vertex="1"><mxGeometry x="80" y="1181" width="160" height="120" as="geometry"/></mxCell><mxCell id="Nk5pLMNR2XuMKu6LX4S3-77" value="+Attribute1&#10;+Attribute2&#10;+Attribute3" style="align=left;strokeColor=none;fillColor=none;spacingLeft=4;fontSize=12;verticalAlign=top;resizable=0;rotatable=0;part=1;fontColor=#1D3557;" parent="Nk5pLMNR2XuMKu6LX4S3-76" vertex="1"><mxGeometry y="30" width="160" height="90" as="geometry"/></mxCell><mxCell id="Nk5pLMNR2XuMKu6LX4S3-78" value="" style="edgeStyle=entityRelationEdgeStyle;orthogonalLoop=1;jettySize=auto;html=1;fontSize=12;startArrow=ERzeroToOne;startFill=0;endArrow=ERzeroToOne;endFill=0;entryX=0;entryY=0.75;entryDx=0;entryDy=0;strokeColor=#457B9D;fontColor=#1D3557;labelBackgroundColor=#F1FAEE;" parent="1" source="Nk5pLMNR2XuMKu6LX4S3-77" target="Nk5pLMNR2XuMKu6LX4S3-45" edge="1"><mxGeometry relative="1" as="geometry"/></mxCell><mxCell id="OhX7KAYPV6jULCx1rX-J-4" value="Board type device alias" style="swimlane;childLayout=stackLayout;horizontal=1;startSize=30;horizontalStack=0;rounded=1;fontSize=14;fontStyle=0;strokeWidth=2;resizeParent=0;resizeLast=1;shadow=0;dashed=0;align=center;fillColor=#A8DADC;strokeColor=#457B9D;fontColor=#1D3557;" parent="1" vertex="1"><mxGeometry x="1220" y="1370" width="160" height="120" as="geometry"/></mxCell><mxCell id="OhX7KAYPV6jULCx1rX-J-5" value="+Attribute1&#10;+Attribute2&#10;+Attribute3" style="align=left;strokeColor=none;fillColor=none;spacingLeft=4;fontSize=12;verticalAlign=top;resizable=0;rotatable=0;part=1;fontColor=#1D3557;" parent="OhX7KAYPV6jULCx1rX-J-4" vertex="1"><mxGeometry y="30" width="160" height="90" as="geometry"/></mxCell><mxCell id="lPTxgjq9LakvXI0zyunq-6" value="LMP" style="swimlane;childLayout=stackLayout;horizontal=1;startSize=30;horizontalStack=0;rounded=1;fontSize=14;fontStyle=0;strokeWidth=2;resizeParent=0;resizeLast=1;shadow=0;dashed=0;align=center;fillColor=#A8DADC;strokeColor=#457B9D;fontColor=#1D3557;" parent="1" vertex="1"><mxGeometry x="90" y="600" width="160" height="100" as="geometry"/></mxCell><mxCell id="lPTxgjq9LakvXI0zyunq-7" value="+Attribute1&#10;+Attribute2&#10;+Attribute3" style="align=left;strokeColor=none;fillColor=none;spacingLeft=4;fontSize=12;verticalAlign=top;resizable=0;rotatable=0;part=1;fontColor=#1D3557;" parent="lPTxgjq9LakvXI0zyunq-6" vertex="1"><mxGeometry y="30" width="160" height="70" as="geometry"/></mxCell><mxCell id="lPTxgjq9LakvXI0zyunq-9" value="UART" style="swimlane;childLayout=stackLayout;horizontal=1;startSize=30;horizontalStack=0;rounded=1;fontSize=14;fontStyle=0;strokeWidth=2;resizeParent=0;resizeLast=1;shadow=0;dashed=0;align=center;fillColor=#A8DADC;strokeColor=#457B9D;fontColor=#1D3557;" parent="1" vertex="1"><mxGeometry x="80" y="850" width="160" height="110" as="geometry"/></mxCell><mxCell id="lPTxgjq9LakvXI0zyunq-10" value="+Attribute1&#10;+Attribute2&#10;+Attribute3" style="align=left;strokeColor=none;fillColor=none;spacingLeft=4;fontSize=12;verticalAlign=top;resizable=0;rotatable=0;part=1;fontColor=#1D3557;" parent="lPTxgjq9LakvXI0zyunq-9" vertex="1"><mxGeometry y="30" width="160" height="80" as="geometry"/></mxCell><mxCell id="lPTxgjq9LakvXI0zyunq-11" style="edgeStyle=orthogonalEdgeStyle;rounded=1;orthogonalLoop=1;jettySize=auto;html=1;exitX=1;exitY=0.75;exitDx=0;exitDy=0;entryX=0;entryY=0.5;entryDx=0;entryDy=0;startArrow=ERzeroToOne;startFill=0;endArrow=ERzeroToOne;endFill=0;strokeColor=#457B9D;fontColor=#1D3557;labelBackgroundColor=#F1FAEE;" parent="1" source="lPTxgjq9LakvXI0zyunq-10" target="PZfQZWNenDgc0RnsTdh2-36" edge="1"><mxGeometry relative="1" as="geometry"><mxPoint x="710" y="240" as="targetPoint"/><mxPoint x="470" y="840" as="sourcePoint"/></mxGeometry></mxCell><mxCell id="lPTxgjq9LakvXI0zyunq-14" value="" style="edgeStyle=entityRelationEdgeStyle;fontSize=12;html=1;endArrow=ERmandOne;startArrow=ERzeroToOne;fontColor=#1D3557;strokeColor=#457B9D;fillColor=#A8DADC;exitX=1;exitY=0.5;exitDx=0;exitDy=0;entryX=0;entryY=0.5;entryDx=0;entryDy=0;endFill=0;startFill=1;labelBackgroundColor=#F1FAEE;" parent="1" source="lPTxgjq9LakvXI0zyunq-7" target="lPTxgjq9LakvXI0zyunq-26" edge="1"><mxGeometry width="100" height="100" relative="1" as="geometry"><mxPoint x="860" y="170" as="sourcePoint"/><mxPoint x="670" y="297.5" as="targetPoint"/></mxGeometry></mxCell><mxCell id="lPTxgjq9LakvXI0zyunq-17" value="UART server" style="swimlane;childLayout=stackLayout;horizontal=1;startSize=30;horizontalStack=0;rounded=1;fontSize=14;fontStyle=0;strokeWidth=2;resizeParent=0;resizeLast=1;shadow=0;dashed=0;align=center;sketch=0;fontColor=#1D3557;fillColor=#A8DADC;strokeColor=#457B9D;" parent="1" vertex="1"><mxGeometry x="-180" y="820" width="160" height="110" as="geometry"/></mxCell><mxCell id="lPTxgjq9LakvXI0zyunq-18" value="+Attribute1&#10;+Attribute2&#10;+Attribute3" style="align=left;strokeColor=none;fillColor=none;spacingLeft=4;fontSize=12;verticalAlign=top;resizable=0;rotatable=0;part=1;fontColor=#1D3557;" parent="lPTxgjq9LakvXI0zyunq-17" vertex="1"><mxGeometry y="30" width="160" height="80" as="geometry"/></mxCell><mxCell id="lPTxgjq9LakvXI0zyunq-19" style="edgeStyle=orthogonalEdgeStyle;curved=0;rounded=1;sketch=0;orthogonalLoop=1;jettySize=auto;html=1;exitX=1;exitY=0.5;exitDx=0;exitDy=0;fontColor=#1D3557;startArrow=ERzeroToOne;startFill=0;endArrow=ERzeroToMany;endFill=0;strokeColor=#457B9D;fillColor=#A8DADC;labelBackgroundColor=#F1FAEE;" parent="1" source="lPTxgjq9LakvXI0zyunq-18" target="lPTxgjq9LakvXI0zyunq-10" edge="1"><mxGeometry relative="1" as="geometry"/></mxCell><mxCell id="lPTxgjq9LakvXI0zyunq-25" value="Device" style="swimlane;childLayout=stackLayout;horizontal=1;startSize=30;horizontalStack=0;rounded=1;fontSize=14;fontStyle=0;strokeWidth=2;resizeParent=0;resizeLast=1;shadow=0;dashed=0;align=center;sketch=0;fontColor=#1D3557;fillColor=#A8DADC;strokeColor=#457B9D;" parent="1" vertex="1"><mxGeometry x="870" y="630" width="160" height="120" as="geometry"/></mxCell><mxCell id="lPTxgjq9LakvXI0zyunq-26" value="+Attribute1&#10;+Attribute2&#10;+Attribute3" style="align=left;strokeColor=none;fillColor=none;spacingLeft=4;fontSize=12;verticalAlign=top;resizable=0;rotatable=0;part=1;fontColor=#1D3557;" parent="lPTxgjq9LakvXI0zyunq-25" vertex="1"><mxGeometry y="30" width="160" height="90" as="geometry"/></mxCell><mxCell id="PZfQZWNenDgc0RnsTdh2-1" value="Test Platform" style="swimlane;childLayout=stackLayout;horizontal=1;startSize=30;horizontalStack=0;rounded=1;fontSize=14;fontStyle=0;strokeWidth=2;resizeParent=0;resizeLast=1;shadow=0;dashed=0;align=center;fillColor=#A8DADC;strokeColor=#457B9D;fontColor=#1D3557;" parent="1" vertex="1"><mxGeometry x="620" y="1021" width="160" height="270" as="geometry"/></mxCell><mxCell id="PZfQZWNenDgc0RnsTdh2-2" value="+Attribute1&#10;+Attribute2&#10;+Attribute3" style="align=left;strokeColor=none;fillColor=none;spacingLeft=4;fontSize=12;verticalAlign=top;resizable=0;rotatable=0;part=1;fontColor=#1D3557;" parent="PZfQZWNenDgc0RnsTdh2-1" vertex="1"><mxGeometry y="30" width="160" height="240" as="geometry"/></mxCell><mxCell id="PZfQZWNenDgc0RnsTdh2-4" value="Reservation" style="swimlane;childLayout=stackLayout;horizontal=1;startSize=30;horizontalStack=0;rounded=1;fontSize=14;fontStyle=0;strokeWidth=2;resizeParent=0;resizeLast=1;shadow=0;dashed=0;align=center;fillColor=#A8DADC;strokeColor=#457B9D;fontColor=#1D3557;" parent="1" vertex="1"><mxGeometry x="340" y="1280" width="160" height="120" as="geometry"/></mxCell><mxCell id="PZfQZWNenDgc0RnsTdh2-5" value="+Attribute1&#10;+Attribute2&#10;+Attribute3" style="align=left;strokeColor=none;fillColor=none;spacingLeft=4;fontSize=12;verticalAlign=top;resizable=0;rotatable=0;part=1;fontColor=#1D3557;" parent="PZfQZWNenDgc0RnsTdh2-4" vertex="1"><mxGeometry y="30" width="160" height="90" as="geometry"/></mxCell><mxCell id="PZfQZWNenDgc0RnsTdh2-7" value="" style="edgeStyle=entityRelationEdgeStyle;fontSize=12;html=1;endArrow=ERmandOne;endFill=0;exitX=1;exitY=0.25;exitDx=0;exitDy=0;startArrow=ERzeroToOne;startFill=1;entryX=0;entryY=0.75;entryDx=0;entryDy=0;labelBackgroundColor=#F1FAEE;strokeColor=#457B9D;fontColor=#1D3557;" parent="1" source="PZfQZWNenDgc0RnsTdh2-5" target="PZfQZWNenDgc0RnsTdh2-2" edge="1"><mxGeometry width="100" height="100" relative="1" as="geometry"><mxPoint x="535" y="940" as="sourcePoint"/><mxPoint x="610" y="1110" as="targetPoint"/></mxGeometry></mxCell><mxCell id="PZfQZWNenDgc0RnsTdh2-11" value="SubReservation" style="swimlane;childLayout=stackLayout;horizontal=1;startSize=30;horizontalStack=0;rounded=1;fontSize=14;fontStyle=0;strokeWidth=2;resizeParent=0;resizeLast=1;shadow=0;dashed=0;align=center;fillColor=#A8DADC;strokeColor=#457B9D;fontColor=#1D3557;" parent="1" vertex="1"><mxGeometry x="80" y="1360" width="160" height="120" as="geometry"/></mxCell><mxCell id="PZfQZWNenDgc0RnsTdh2-12" value="+Attribute1&#10;+Attribute2&#10;+Attribute3" style="align=left;strokeColor=none;fillColor=none;spacingLeft=4;fontSize=12;verticalAlign=top;resizable=0;rotatable=0;part=1;fontColor=#1D3557;" parent="PZfQZWNenDgc0RnsTdh2-11" vertex="1"><mxGeometry y="30" width="160" height="90" as="geometry"/></mxCell><mxCell id="PZfQZWNenDgc0RnsTdh2-13" value="" style="edgeStyle=entityRelationEdgeStyle;fontSize=12;html=1;endArrow=ERzeroToMany;startArrow=ERmandOne;entryX=1;entryY=0.5;entryDx=0;entryDy=0;exitX=0;exitY=0.5;exitDx=0;exitDy=0;labelBackgroundColor=#F1FAEE;strokeColor=#457B9D;fontColor=#1D3557;" parent="1" source="PZfQZWNenDgc0RnsTdh2-5" target="PZfQZWNenDgc0RnsTdh2-12" edge="1"><mxGeometry width="100" height="100" relative="1" as="geometry"><mxPoint x="510" y="280" as="sourcePoint"/><mxPoint x="260" y="560" as="targetPoint"/></mxGeometry></mxCell><mxCell id="PZfQZWNenDgc0RnsTdh2-17" value="" style="edgeStyle=entityRelationEdgeStyle;fontSize=12;html=1;endArrow=ERzeroToOne;startArrow=ERzeroToOne;entryX=0;entryY=0.5;entryDx=0;entryDy=0;endFill=1;labelBackgroundColor=#F1FAEE;strokeColor=#457B9D;fontColor=#1D3557;" parent="1" source="PZfQZWNenDgc0RnsTdh2-2" target="Nk5pLMNR2XuMKu6LX4S3-70" edge="1"><mxGeometry width="100" height="100" relative="1" as="geometry"><mxPoint x="1050" y="730" as="sourcePoint"/><mxPoint x="1150" y="630" as="targetPoint"/></mxGeometry></mxCell><mxCell id="PZfQZWNenDgc0RnsTdh2-36" value="UART group" style="swimlane;childLayout=stackLayout;horizontal=1;startSize=30;horizontalStack=0;rounded=1;fontSize=14;fontStyle=0;strokeWidth=2;resizeParent=0;resizeLast=1;shadow=0;dashed=0;align=center;fillColor=#A8DADC;strokeColor=#457B9D;fontColor=#1D3557;" parent="1" vertex="1"><mxGeometry x="340" y="920" width="160" height="120" as="geometry"/></mxCell><mxCell id="PZfQZWNenDgc0RnsTdh2-39" value="" style="edgeStyle=entityRelationEdgeStyle;fontSize=12;html=1;endArrow=ERoneToMany;entryX=1;entryY=0.75;entryDx=0;entryDy=0;exitX=0;exitY=0.25;exitDx=0;exitDy=0;endFill=0;startArrow=ERmandOne;startFill=0;labelBackgroundColor=#F1FAEE;strokeColor=#457B9D;fontColor=#1D3557;" parent="1" source="PZfQZWNenDgc0RnsTdh2-2" target="PZfQZWNenDgc0RnsTdh2-36" edge="1"><mxGeometry width="100" height="100" relative="1" as="geometry"><mxPoint x="470" y="980" as="sourcePoint"/><mxPoint x="570" y="880" as="targetPoint"/></mxGeometry></mxCell><mxCell id="PZfQZWNenDgc0RnsTdh2-42" value="DeviceType" style="swimlane;childLayout=stackLayout;horizontal=1;startSize=30;horizontalStack=0;rounded=1;fontSize=14;fontStyle=0;strokeWidth=2;resizeParent=0;resizeLast=1;shadow=0;dashed=0;align=center;fillColor=#A8DADC;strokeColor=#457B9D;fontColor=#1D3557;" parent="1" vertex="1"><mxGeometry x="610" y="770" width="160" height="120" as="geometry"/></mxCell><mxCell id="PZfQZWNenDgc0RnsTdh2-43" value="+Attribute1&#10;+Attribute2&#10;+Attribute3" style="align=left;strokeColor=none;fillColor=none;spacingLeft=4;fontSize=12;verticalAlign=top;resizable=0;rotatable=0;part=1;fontColor=#1D3557;" parent="PZfQZWNenDgc0RnsTdh2-42" vertex="1"><mxGeometry y="30" width="160" height="90" as="geometry"/></mxCell><mxCell id="PZfQZWNenDgc0RnsTdh2-44" value="" style="edgeStyle=entityRelationEdgeStyle;fontSize=12;html=1;endArrow=ERzeroToMany;startArrow=ERmandOne;entryX=1;entryY=0.5;entryDx=0;entryDy=0;exitX=0;exitY=0.25;exitDx=0;exitDy=0;startFill=0;endFill=1;labelBackgroundColor=#F1FAEE;strokeColor=#457B9D;fontColor=#1D3557;" parent="1" source="PZfQZWNenDgc0RnsTdh2-43" target="PZfQZWNenDgc0RnsTdh2-36" edge="1"><mxGeometry width="100" height="100" relative="1" as="geometry"><mxPoint x="990" y="1170" as="sourcePoint"/><mxPoint x="1090" y="1070" as="targetPoint"/></mxGeometry></mxCell><mxCell id="PZfQZWNenDgc0RnsTdh2-45" value="" style="edgeStyle=entityRelationEdgeStyle;fontSize=12;html=1;endArrow=ERmany;startArrow=ERmandOne;entryX=0;entryY=0.75;entryDx=0;entryDy=0;exitX=1;exitY=0.5;exitDx=0;exitDy=0;startFill=0;labelBackgroundColor=#F1FAEE;strokeColor=#457B9D;fontColor=#1D3557;" parent="1" source="PZfQZWNenDgc0RnsTdh2-43" target="lPTxgjq9LakvXI0zyunq-26" edge="1"><mxGeometry width="100" height="100" relative="1" as="geometry"><mxPoint x="990" y="1170" as="sourcePoint"/><mxPoint x="1090" y="1070" as="targetPoint"/></mxGeometry></mxCell><mxCell id="PZfQZWNenDgc0RnsTdh2-46" value="" style="edgeStyle=entityRelationEdgeStyle;fontSize=12;html=1;endArrow=ERzeroToMany;startArrow=none;entryX=0;entryY=0.75;entryDx=0;entryDy=0;exitX=1;exitY=0.75;exitDx=0;exitDy=0;labelBackgroundColor=#F1FAEE;strokeColor=#457B9D;fontColor=#1D3557;" parent="1" source="OhX7KAYPV6jULCx1rX-J-2" target="OhX7KAYPV6jULCx1rX-J-5" edge="1"><mxGeometry width="100" height="100" relative="1" as="geometry"><mxPoint x="1350" y="1190" as="sourcePoint"/><mxPoint x="1450" y="1090" as="targetPoint"/></mxGeometry></mxCell><mxCell id="OhX7KAYPV6jULCx1rX-J-2" value="Board Type" style="swimlane;childLayout=stackLayout;horizontal=1;startSize=30;horizontalStack=0;rounded=1;fontSize=14;fontStyle=0;strokeWidth=2;resizeParent=0;resizeLast=1;shadow=0;dashed=0;align=center;fillColor=#A8DADC;strokeColor=#457B9D;fontColor=#1D3557;" parent="1" vertex="1"><mxGeometry x="980" y="1520" width="160" height="120" as="geometry"/></mxCell><mxCell id="OhX7KAYPV6jULCx1rX-J-3" value="+Attribute1&#10;+Attribute2&#10;+Attribute3" style="align=left;strokeColor=none;fillColor=none;spacingLeft=4;fontSize=12;verticalAlign=top;resizable=0;rotatable=0;part=1;fontColor=#1D3557;" parent="OhX7KAYPV6jULCx1rX-J-2" vertex="1"><mxGeometry y="30" width="160" height="90" as="geometry"/></mxCell><mxCell id="PZfQZWNenDgc0RnsTdh2-48" value="" style="edgeStyle=orthogonalEdgeStyle;fontSize=12;html=1;endArrow=none;endFill=0;exitX=0.5;exitY=1;exitDx=0;exitDy=0;startArrow=ERmany;startFill=0;strokeColor=#457B9D;fontColor=#1D3557;jumpStyle=none;shadow=0;curved=1;entryX=0.5;entryY=0;entryDx=0;entryDy=0;labelBackgroundColor=#F1FAEE;" parent="1" source="lPTxgjq9LakvXI0zyunq-26" target="Nk5pLMNR2XuMKu6LX4S3-69" edge="1"><mxGeometry width="100" height="100" relative="1" as="geometry"><mxPoint x="1070" y="810" as="sourcePoint"/><mxPoint x="1060" y="1050" as="targetPoint"/></mxGeometry></mxCell><mxCell id="nqNR8z3QMo4KgqoaMpbW-2" value="Unit Type" style="swimlane;childLayout=stackLayout;horizontal=1;startSize=30;horizontalStack=0;rounded=1;fontSize=14;fontStyle=0;strokeWidth=2;resizeParent=0;resizeLast=1;shadow=0;dashed=0;align=center;fillColor=#A8DADC;strokeColor=#457B9D;fontColor=#1D3557;" parent="1" vertex="1"><mxGeometry x="870" y="1280" width="160" height="120" as="geometry"/></mxCell><mxCell id="nqNR8z3QMo4KgqoaMpbW-3" value="+Attribute1&#10;+Attribute2&#10;+Attribute3" style="align=left;strokeColor=none;fillColor=none;spacingLeft=4;fontSize=12;verticalAlign=top;resizable=0;rotatable=0;part=1;fontColor=#1D3557;" parent="nqNR8z3QMo4KgqoaMpbW-2" vertex="1"><mxGeometry y="30" width="160" height="90" as="geometry"/></mxCell><mxCell id="nqNR8z3QMo4KgqoaMpbW-5" value="Extends" style="endArrow=block;endSize=16;endFill=0;html=1;entryX=0.5;entryY=1;entryDx=0;entryDy=0;exitX=0.496;exitY=0.25;exitDx=0;exitDy=0;exitPerimeter=0;labelBackgroundColor=#F1FAEE;strokeColor=#457B9D;fontColor=#1D3557;" parent="1" source="nqNR8z3QMo4KgqoaMpbW-7" target="nqNR8z3QMo4KgqoaMpbW-3" edge="1"><mxGeometry width="160" relative="1" as="geometry"><mxPoint x="950" y="1460" as="sourcePoint"/><mxPoint x="960" y="1420" as="targetPoint"/></mxGeometry></mxCell><mxCell id="nqNR8z3QMo4KgqoaMpbW-7" value="" style="line;strokeWidth=1;fillColor=none;align=left;verticalAlign=middle;spacingTop=-1;spacingLeft=3;spacingRight=3;rotatable=0;labelPosition=right;points=[];portConstraint=eastwest;labelBackgroundColor=#F1FAEE;strokeColor=#457B9D;fontColor=#1D3557;" parent="1" vertex="1"><mxGeometry x="840" y="1450" width="230" height="8" as="geometry"/></mxCell><mxCell id="nqNR8z3QMo4KgqoaMpbW-8" value="" style="endArrow=none;html=1;rounded=0;entryX=0.971;entryY=0.5;entryDx=0;entryDy=0;entryPerimeter=0;exitX=0.5;exitY=0;exitDx=0;exitDy=0;labelBackgroundColor=#F1FAEE;strokeColor=#457B9D;fontColor=#1D3557;" parent="1" source="OhX7KAYPV6jULCx1rX-J-2" target="nqNR8z3QMo4KgqoaMpbW-7" edge="1"><mxGeometry relative="1" as="geometry"><mxPoint x="740" y="1400" as="sourcePoint"/><mxPoint x="900" y="1400" as="targetPoint"/></mxGeometry></mxCell><mxCell id="nqNR8z3QMo4KgqoaMpbW-9" style="edgeStyle=orthogonalEdgeStyle;rounded=0;orthogonalLoop=1;jettySize=auto;html=1;exitX=0.5;exitY=1;exitDx=0;exitDy=0;labelBackgroundColor=#F1FAEE;strokeColor=#457B9D;fontColor=#1D3557;" parent="1" source="Nk5pLMNR2XuMKu6LX4S3-70" target="nqNR8z3QMo4KgqoaMpbW-2" edge="1"><mxGeometry relative="1" as="geometry"/></mxCell><mxCell id="nqNR8z3QMo4KgqoaMpbW-12" style="edgeStyle=orthogonalEdgeStyle;rounded=0;orthogonalLoop=1;jettySize=auto;html=1;exitX=0.5;exitY=0;exitDx=0;exitDy=0;entryX=0.017;entryY=0.75;entryDx=0;entryDy=0;entryPerimeter=0;labelBackgroundColor=#F1FAEE;strokeColor=#457B9D;fontColor=#1D3557;endArrow=none;endFill=0;" parent="1" source="nqNR8z3QMo4KgqoaMpbW-10" target="nqNR8z3QMo4KgqoaMpbW-7" edge="1"><mxGeometry relative="1" as="geometry"><Array as="points"><mxPoint x="844" y="1550"/></Array></mxGeometry></mxCell><mxCell id="nqNR8z3QMo4KgqoaMpbW-10" value="Module Type" style="swimlane;childLayout=stackLayout;horizontal=1;startSize=30;horizontalStack=0;rounded=1;fontSize=14;fontStyle=0;strokeWidth=2;resizeParent=0;resizeLast=1;shadow=0;dashed=0;align=center;fillColor=#A8DADC;strokeColor=#457B9D;fontColor=#1D3557;" parent="1" vertex="1"><mxGeometry x="760" y="1520" width="160" height="120" as="geometry"/></mxCell><mxCell id="nqNR8z3QMo4KgqoaMpbW-11" value="+Attribute1&#10;+Attribute2&#10;+Attribute3" style="align=left;strokeColor=none;fillColor=none;spacingLeft=4;fontSize=12;verticalAlign=top;resizable=0;rotatable=0;part=1;fontColor=#1D3557;" parent="nqNR8z3QMo4KgqoaMpbW-10" vertex="1"><mxGeometry y="30" width="160" height="90" as="geometry"/></mxCell><mxCell id="nqNR8z3QMo4KgqoaMpbW-13" style="edgeStyle=orthogonalEdgeStyle;rounded=0;orthogonalLoop=1;jettySize=auto;html=1;exitX=1;exitY=0.75;exitDx=0;exitDy=0;entryX=0;entryY=0.25;entryDx=0;entryDy=0;endArrow=ERzeroToMany;endFill=1;startArrow=ERmandOne;startFill=0;labelBackgroundColor=#F1FAEE;strokeColor=#457B9D;fontColor=#1D3557;" parent="1" source="PZfQZWNenDgc0RnsTdh2-43" target="OhX7KAYPV6jULCx1rX-J-5" edge="1"><mxGeometry relative="1" as="geometry"><Array as="points"><mxPoint x="1050" y="868"/><mxPoint x="1050" y="1423"/></Array></mxGeometry></mxCell><mxCell id="nqNR8z3QMo4KgqoaMpbW-23" value="" style="edgeStyle=entityRelationEdgeStyle;fontSize=12;html=1;endArrow=ERone;endFill=1;entryX=0;entryY=0.25;entryDx=0;entryDy=0;exitX=1.006;exitY=0.589;exitDx=0;exitDy=0;exitPerimeter=0;labelBackgroundColor=#F1FAEE;strokeColor=#457B9D;fontColor=#1D3557;" parent="1" source="nqNR8z3QMo4KgqoaMpbW-11" target="OhX7KAYPV6jULCx1rX-J-3" edge="1"><mxGeometry width="100" height="100" relative="1" as="geometry"><mxPoint x="880" y="1680" as="sourcePoint"/><mxPoint x="980" y="1580" as="targetPoint"/></mxGeometry></mxCell><mxCell id="nqNR8z3QMo4KgqoaMpbW-24" value="Power Supply Group" style="swimlane;childLayout=stackLayout;horizontal=1;startSize=30;horizontalStack=0;rounded=1;fontSize=14;fontStyle=0;strokeWidth=2;resizeParent=0;resizeLast=1;shadow=0;dashed=0;align=center;fillColor=#A8DADC;strokeColor=#457B9D;fontColor=#1D3557;" parent="1" vertex="1"><mxGeometry x="-180" y="1230" width="160" height="120" as="geometry"/></mxCell><mxCell id="nqNR8z3QMo4KgqoaMpbW-25" value="+Attribute1&#10;+Attribute2&#10;+Attribute3" style="align=left;strokeColor=none;fillColor=none;spacingLeft=4;fontSize=12;verticalAlign=top;resizable=0;rotatable=0;part=1;fontColor=#1D3557;" parent="nqNR8z3QMo4KgqoaMpbW-24" vertex="1"><mxGeometry y="30" width="160" height="90" as="geometry"/></mxCell><mxCell id="nqNR8z3QMo4KgqoaMpbW-26" value="" style="edgeStyle=entityRelationEdgeStyle;fontSize=12;html=1;endArrow=ERzeroToMany;endFill=0;entryX=0.006;entryY=0.367;entryDx=0;entryDy=0;startArrow=ERzeroToOne;startFill=1;strokeColor=#457B9D;fontColor=#1D3557;entryPerimeter=0;exitX=1.013;exitY=0.411;exitDx=0;exitDy=0;exitPerimeter=0;labelBackgroundColor=#F1FAEE;" parent="1" source="nqNR8z3QMo4KgqoaMpbW-25" target="Nk5pLMNR2XuMKu6LX4S3-77" edge="1"><mxGeometry width="100" height="100" relative="1" as="geometry"><mxPoint x="10" y="1133.5" as="sourcePoint"/><mxPoint x="90" y="1131" as="targetPoint"/></mxGeometry></mxCell><mxCell id="nqNR8z3QMo4KgqoaMpbW-27" value="Network" style="swimlane;childLayout=stackLayout;horizontal=1;startSize=30;horizontalStack=0;rounded=1;fontSize=14;fontStyle=0;strokeWidth=2;resizeParent=0;resizeLast=1;shadow=0;dashed=0;align=center;fillColor=#A8DADC;strokeColor=#457B9D;fontColor=#1D3557;" parent="1" vertex="1"><mxGeometry x="-180" y="960" width="160" height="120" as="geometry"/></mxCell><mxCell id="nqNR8z3QMo4KgqoaMpbW-28" value="+Attribute1&#10;+Attribute2&#10;+Attribute3" style="align=left;strokeColor=none;fillColor=none;spacingLeft=4;fontSize=12;verticalAlign=top;resizable=0;rotatable=0;part=1;fontColor=#1D3557;" parent="nqNR8z3QMo4KgqoaMpbW-27" vertex="1"><mxGeometry y="30" width="160" height="90" as="geometry"/></mxCell><mxCell id="nqNR8z3QMo4KgqoaMpbW-29" value="" style="edgeStyle=entityRelationEdgeStyle;fontSize=12;html=1;endArrow=ERmany;exitX=1;exitY=0.5;exitDx=0;exitDy=0;entryX=0;entryY=0.75;entryDx=0;entryDy=0;labelBackgroundColor=#F1FAEE;strokeColor=#457B9D;fontColor=#1D3557;" parent="1" source="nqNR8z3QMo4KgqoaMpbW-28" target="Nk5pLMNR2XuMKu6LX4S3-47" edge="1"><mxGeometry width="100" height="100" relative="1" as="geometry"><mxPoint x="610" y="1150" as="sourcePoint"/><mxPoint x="710" y="1050" as="targetPoint"/></mxGeometry></mxCell><mxCell id="U7mVQXBrc0BEKBdy5Ev7-1" value="" style="edgeStyle=entityRelationEdgeStyle;fontSize=12;html=1;endArrow=ERmany;entryX=0;entryY=0.5;entryDx=0;entryDy=0;exitX=1;exitY=0.25;exitDx=0;exitDy=0;labelBackgroundColor=#F1FAEE;strokeColor=#457B9D;fontColor=#1D3557;" parent="1" source="nqNR8z3QMo4KgqoaMpbW-28" target="lPTxgjq9LakvXI0zyunq-7" edge="1"><mxGeometry width="100" height="100" relative="1" as="geometry"><mxPoint x="450" y="700" as="sourcePoint"/><mxPoint x="80" y="1020" as="targetPoint"/></mxGeometry></mxCell><mxCell id="U7mVQXBrc0BEKBdy5Ev7-4" value="Network address" style="swimlane;childLayout=stackLayout;horizontal=1;startSize=30;horizontalStack=0;rounded=1;fontSize=14;fontStyle=0;strokeWidth=2;resizeParent=0;resizeLast=1;shadow=0;dashed=0;align=center;fillColor=#A8DADC;strokeColor=#457B9D;fontColor=#1D3557;" parent="1" vertex="1"><mxGeometry x="-420" y="1021" width="160" height="120" as="geometry"/></mxCell><mxCell id="U7mVQXBrc0BEKBdy5Ev7-5" value="+Attribute1&#10;+Attribute2&#10;+Attribute3" style="align=left;strokeColor=none;fillColor=none;spacingLeft=4;fontSize=12;verticalAlign=top;resizable=0;rotatable=0;part=1;fontColor=#1D3557;" parent="U7mVQXBrc0BEKBdy5Ev7-4" vertex="1"><mxGeometry y="30" width="160" height="90" as="geometry"/></mxCell><mxCell id="U7mVQXBrc0BEKBdy5Ev7-6" value="" style="edgeStyle=entityRelationEdgeStyle;fontSize=12;html=1;endArrow=ERmandOne;entryX=0;entryY=0.5;entryDx=0;entryDy=0;exitX=1;exitY=0.5;exitDx=0;exitDy=0;endFill=0;startArrow=ERzeroToMany;startFill=1;labelBackgroundColor=#F1FAEE;strokeColor=#457B9D;fontColor=#1D3557;" parent="1" source="U7mVQXBrc0BEKBdy5Ev7-5" target="nqNR8z3QMo4KgqoaMpbW-28" edge="1"><mxGeometry width="100" height="100" relative="1" as="geometry"><mxPoint x="-300" y="1260" as="sourcePoint"/><mxPoint x="-200" y="1160" as="targetPoint"/></mxGeometry></mxCell></root></mxGraphModel></diagram><diagram id="EHQZpxlD8DrwJeU4C3g4" name="Page-2"><mxGraphModel dx="864" dy="175" grid="1" gridSize="10" guides="1" tooltips="1" connect="1" arrows="1" fold="1" page="1" pageScale="1" pageWidth="827" pageHeight="1169" math="0" shadow="0"><root><mxCell id="bkxLEjDYbQjnQu8Gk3fn-0"/><mxCell id="bkxLEjDYbQjnQu8Gk3fn-1" parent="bkxLEjDYbQjnQu8Gk3fn-0"/><mxCell id="bkxLEjDYbQjnQu8Gk3fn-2" value="BP NetIntf" style="swimlane;childLayout=stackLayout;horizontal=1;startSize=30;horizontalStack=0;rounded=1;fontSize=14;fontStyle=0;strokeWidth=2;resizeParent=0;resizeLast=1;shadow=0;dashed=0;align=center;sketch=0;fontColor=#1D3557;fillColor=#A8DADC;" parent="bkxLEjDYbQjnQu8Gk3fn-1" vertex="1"><mxGeometry x="80" y="40" width="160" height="120" as="geometry"/></mxCell><mxCell id="bkxLEjDYbQjnQu8Gk3fn-3" value="Dynamic Mac" style="align=left;strokeColor=none;fillColor=none;spacingLeft=4;fontSize=12;verticalAlign=top;resizable=0;rotatable=0;part=1;" parent="bkxLEjDYbQjnQu8Gk3fn-2" vertex="1"><mxGeometry y="30" width="160" height="90" as="geometry"/></mxCell><mxCell id="bkxLEjDYbQjnQu8Gk3fn-8" value="BP Network" style="swimlane;childLayout=stackLayout;horizontal=1;startSize=30;horizontalStack=0;rounded=1;fontSize=14;fontStyle=0;strokeWidth=2;resizeParent=0;resizeLast=1;shadow=0;dashed=0;align=center;sketch=0;fontColor=#1D3557;fillColor=#A8DADC;" parent="bkxLEjDYbQjnQu8Gk3fn-1" vertex="1"><mxGeometry x="80" y="360" width="160" height="120" as="geometry"/></mxCell><mxCell id="bkxLEjDYbQjnQu8Gk3fn-10" value="Backplane" style="swimlane;childLayout=stackLayout;horizontal=1;startSize=30;horizontalStack=0;rounded=1;fontSize=14;fontStyle=0;strokeWidth=2;resizeParent=0;resizeLast=1;shadow=0;dashed=0;align=center;sketch=0;fontColor=#1D3557;fillColor=#A8DADC;" parent="bkxLEjDYbQjnQu8Gk3fn-1" vertex="1"><mxGeometry x="400" y="360" width="160" height="120" as="geometry"/></mxCell><mxCell id="bkxLEjDYbQjnQu8Gk3fn-11" value="+Attribute1&#10;+Attribute2&#10;+Attribute3" style="align=left;strokeColor=none;fillColor=none;spacingLeft=4;fontSize=12;verticalAlign=top;resizable=0;rotatable=0;part=1;" parent="bkxLEjDYbQjnQu8Gk3fn-10" vertex="1"><mxGeometry y="30" width="160" height="90" as="geometry"/></mxCell><mxCell id="bkxLEjDYbQjnQu8Gk3fn-12" value="Entity" style="swimlane;childLayout=stackLayout;horizontal=1;startSize=30;horizontalStack=0;rounded=1;fontSize=14;fontStyle=0;strokeWidth=2;resizeParent=0;resizeLast=1;shadow=0;dashed=0;align=center;sketch=0;fontColor=#1D3557;fillColor=#A8DADC;" parent="bkxLEjDYbQjnQu8Gk3fn-1" vertex="1"><mxGeometry x="330" y="560" width="160" height="120" as="geometry"/></mxCell><mxCell id="bkxLEjDYbQjnQu8Gk3fn-13" value="+Attribute1&#10;+Attribute2&#10;+Attribute3" style="align=left;strokeColor=none;fillColor=none;spacingLeft=4;fontSize=12;verticalAlign=top;resizable=0;rotatable=0;part=1;" parent="bkxLEjDYbQjnQu8Gk3fn-12" vertex="1"><mxGeometry y="30" width="160" height="90" as="geometry"/></mxCell></root></mxGraphModel></diagram></mxfile>